<svg width="48" height="48" viewBox="0 0 48 48" fill="none" xmlns="http://www.w3.org/2000/svg">
<rect y="42.667" width="5.33333" height="5.33333" fill="black"/>
<rect x="5.33398" y="42.667" width="5.33333" height="5.33333" fill="black"/>
<rect x="10.666" y="42.667" width="5.33333" height="5.33333" fill="black"/>
<rect x="16" y="42.667" width="5.33333" height="5.33333" fill="black"/>
<rect x="21.334" y="42.667" width="5.33333" height="5.33333" fill="black"/>
<rect x="26.666" y="42.667" width="5.33333" height="5.33333" fill="black"/>
<rect x="32" y="42.667" width="5.33333" height="5.33333" fill="black"/>
<rect x="42.666" y="42.667" width="5.33333" height="5.33333" fill="black"/>
<rect x="42.666" y="37.333" width="5.33333" height="5.33333" fill="black"/>
<rect x="42.666" y="32" width="5.33333" height="5.33333" fill="black"/>
<rect x="42.666" y="26.667" width="5.33333" height="5.33333" fill="black"/>
<rect x="42.666" y="21.333" width="5.33333" height="5.33333" fill="black"/>
<rect x="42.666" y="16" width="5.33333" height="5.33333" fill="black"/>
<rect x="37.334" y="16" width="5.33333" height="5.33333" fill="black"/>
<rect x="37.334" y="42.667" width="5.33333" height="5.33333" fill="black"/>
<rect y="37.333" width="5.33333" height="5.33333" fill="black"/>
<rect y="26.667" width="5.33333" height="5.33333" fill="black"/>
<rect y="21.333" width="5.33333" height="5.33333" fill="black"/>
<rect y="16" width="5.33333" height="5.33333" fill="black"/>
<rect x="5.33398" y="16" width="5.33333" height="5.33333" fill="black"/>
<rect x="10.666" y="16" width="5.33333" height="5.33333" fill="black"/>
<rect x="10.666" y="10.667" width="5.33333" height="5.33333" fill="black"/>
<rect x="10.666" y="5.33301" width="5.33333" height="5.33333" fill="black"/>
<path d="M10.666 5.33333C10.666 2.38782 13.0538 0 15.9993 0V0V5.33333H10.666V5.33333Z" fill="black"/>
<rect x="32" y="10.667" width="5.33333" height="5.33333" fill="black"/>
<rect x="32" y="5.33301" width="5.33333" height="5.33333" fill="black"/>
<path d="M32 0V0C34.9455 0 37.3333 2.38782 37.3333 5.33333V5.33333H32V0Z" fill="black"/>
<rect x="26.666" width="5.33333" height="5.33333" fill="black"/>
<rect x="21.334" width="5.33333" height="5.33333" fill="black"/>
<rect x="16" width="5.33333" height="5.33333" fill="black"/>
<rect x="16" y="16" width="5.33333" height="5.33333" fill="black"/>
<rect x="21.334" y="16" width="5.33333" height="5.33333" fill="black"/>
<rect x="26.666" y="16" width="5.33333" height="5.33333" fill="black"/>
<rect x="32" y="16" width="5.33333" height="5.33333" fill="black"/>
<rect y="32" width="5.33333" height="5.33333" fill="black"/>
<rect x="12" y="29.333" width="5.33333" height="5.33333" fill="black"/>
<rect x="21.334" y="29.333" width="5.33333" height="5.33333" fill="black"/>
<rect x="30.666" y="29.333" width="5.33333" height="5.33333" fill="black"/>
</svg>
